<?xml version="1.0" encoding="UTF-8"?>
<svg width="84px" height="286px" viewBox="0 0 84 286" version="1.1" xmlns="http://www.w3.org/2000/svg" xmlns:xlink="http://www.w3.org/1999/xlink">
    <title>body</title>
    <defs>
        <linearGradient x1="46.3591127%" y1="4.390625%" x2="53.5945257%" y2="95.9711538%" id="linearGradient-1">
            <stop stop-color="#1350F3" offset="0%"></stop>
            <stop stop-color="#883DCF" offset="100%"></stop>
        </linearGradient>
    </defs>
    <g id="Dashboard" stroke="none" stroke-width="1" fill="none" fill-rule="evenodd" fill-opacity="0.3">
        <g id="body" fill="url(#linearGradient-1)">
            <path d="M83.3762983,139.875278 C83.4549849,135.911785 83.6123582,121.643209 83.6123582,117.391462 C83.6123582,110.617492 81.0156987,106.005427 80.8583254,101.393362 C80.7796388,98.1505042 81.3304453,82.7289125 81.2517587,81.0714517 C81.0156987,75.0181167 81.2517587,60.2450966 75.979753,52.9666818 C73.7765267,50.0120778 63.547262,48.5708075 59.5342428,47.4177913 C55.5999102,46.1927116 53.7114305,45.2558859 51.5868909,43.8146157 C50.0131579,42.733663 48.9902314,37.256836 48.5967982,34.5904861 C49.8557846,33.5095334 50.9573977,32.2123901 51.9803242,30.5549294 C53.3966839,28.3209605 55.2064769,25.6546105 55.6785968,22.7000065 C56.9375833,22.1234984 56.6228366,20.9704822 57.1736432,19.7454025 C58.0391964,17.7996876 58.353943,15.7819093 56.8588966,15.2054012 C56.30809,14.9892106 56.4654633,14.9892106 55.8359701,15.2054012 C55.1277903,6.48571614 51.5082043,0 41.9871194,0 C32.4660345,0 28.8464486,6.55777965 28.1382687,15.2054012 C27.5087755,14.9892106 27.6661488,14.9892106 27.1153422,15.2054012 C25.6202958,15.7819093 25.8563558,17.7996876 26.8005956,19.7454025 C27.3514022,20.9704822 27.0366556,22.1234984 28.295642,22.7000065 C28.7677619,25.870801 30.7349282,28.681278 32.2299746,30.9152469 C33.2529011,32.3565172 34.2758275,33.5815969 35.4561273,34.5904861 C35.062694,37.256836 34.0397676,42.733663 32.4660345,43.8146157 C30.3414949,45.2558859 28.5317019,46.2647751 24.5186827,47.4177913 C20.5056635,48.642871 10.2763987,50.0120778 8.07317247,52.9666818 C2.8011668,60.2450966 3.03722675,75.0181167 2.8011668,81.0714517 C2.72248014,82.800976 3.27328671,98.1505042 3.19460005,101.393362 C3.03722675,106.005427 0.519253893,110.617492 0.519253893,117.391462 C0.519253893,121.643209 0.755313848,135.911785 0.755313848,139.875278 C0.8340005,145.496232 -0.739732537,150.324487 0.440567241,155.801314 C1.22743376,159.476553 6.89287269,165.746079 7.28630595,164.593063 C7.75842586,163.367983 6.34206613,159.62068 5.39782631,156.233695 C5.0830797,155.224806 6.34206613,150.756868 6.34206613,150.756868 C6.34206613,150.756868 7.91579916,149.027344 7.99448582,151.045122 C8.07317247,153.062901 8.23054577,155.657187 9.3321589,155.873378 C10.433772,156.089568 10.1977121,149.531789 10.0403388,147.946391 C9.80427881,144.271152 5.94863287,141.316548 5.94863287,139.875278 C6.42075278,132.092419 11.3780118,122.003527 11.7714451,117.895907 C12.479625,111.194 13.3451781,97.8622502 14.2107313,90.7279624 C15.9418377,75.9549423 16.9647641,69.3971627 17.7516306,69.3971627 C18.3811239,69.3971627 17.0434508,74.7298626 18.0663773,78.1889112 C19.9548569,84.3863733 23.4170696,91.232407 22.7088897,99.4476474 C22.2367698,104.996538 14.7615379,109.824793 13.4238648,128.056862 C12.0861917,146.216867 15.2336578,163.223856 16.3352709,167.835921 C17.3581974,172.447986 20.0335435,191.112436 19.3253637,197.165771 C18.6171838,203.219106 15.4697177,211.001965 18.1450639,224.549905 C20.7417234,238.097846 24.5186827,257.26674 24.5186827,262.38325 C24.5186827,267.427695 19.7187969,282.70516 20.8204101,283.425795 C21.8433365,284.14643 31.915228,287.821669 33.488961,284.867065 C35.062694,281.984525 33.0168411,268.148331 32.7020945,262.311186 C32.4660345,256.474041 31.679168,248.258801 32.1512879,242.205466 C32.7020945,236.152131 32.3873479,227.648636 32.3873479,218.208316 C32.3873479,208.767996 33.725021,204.660376 33.9610809,201.273391 C34.2758275,197.742279 37.108547,177.708622 37.9741002,169.781636 C38.7609667,161.782586 39.5478332,142.18131 41.4363128,141.820993 C41.5149995,141.748929 41.6723728,141.316548 41.7510595,140.52385 C41.8297461,141.316548 41.9084328,141.748929 42.0658061,141.820993 C43.8755991,142.18131 44.7411522,161.782586 45.5280187,169.781636 C46.3148853,177.708622 49.2262914,197.742279 49.4623513,201.273391 C49.7770979,204.660376 51.0360844,208.767996 51.0360844,218.208316 C51.0360844,227.648636 50.8000244,236.152131 51.2721443,242.205466 C51.8229509,248.258801 51.0360844,256.474041 50.7213378,262.311186 C50.4852778,268.148331 48.3607382,281.912461 49.9344712,284.867065 C51.5082043,287.749606 61.5800957,284.14643 62.6030222,283.425795 C63.7046353,282.70516 58.9047496,267.427695 58.9047496,262.38325 C58.9047496,257.26674 62.6030222,238.169909 65.2783683,224.549905 C67.9537145,211.001965 64.7275618,203.219106 64.0980686,197.165771 C63.4685754,191.112436 66.0652349,172.447986 67.166848,167.835921 C68.2684611,163.223856 71.4159272,146.288931 70.0782541,128.056862 C68.740581,109.896857 61.2653491,105.068601 60.7932292,99.4476474 C60.163736,91.232407 63.547262,84.3143098 65.4357417,78.1889112 C66.4586681,74.8019261 65.120995,69.3971627 65.8291749,69.3971627 C66.6160414,69.3971627 67.6389679,75.8828788 69.4487609,90.7279624 C70.3143141,97.8622502 71.1798672,111.194 71.8880471,117.895907 C72.360167,122.003527 77.3174261,132.092419 77.7108593,139.875278 C77.789546,141.316548 73.9339001,144.271152 73.6978401,147.946391 C73.6191534,149.531789 73.3044068,156.089568 74.40602,155.873378 C75.5076331,155.657187 75.6650064,153.062901 75.743693,151.045122 C75.8223797,149.027344 77.3961127,150.756868 77.3961127,150.756868 C77.3961127,150.756868 78.6550992,155.224806 78.3403526,156.233695 C77.3961127,159.692744 75.979753,163.367983 76.4518729,164.593063 C76.9239928,165.818143 82.5107451,159.476553 83.2976116,155.801314 C84.8713447,150.324487 83.2976116,145.496232 83.3762983,139.875278 Z" id="Path"></path>
        </g>
    </g>
</svg>