<?xml version="1.0" encoding="UTF-8"?>
<svg width="133px" height="153px" viewBox="0 0 133 153" version="1.1" xmlns="http://www.w3.org/2000/svg" xmlns:xlink="http://www.w3.org/1999/xlink">
    <title>Group 33</title>
    <defs>
        <path d="M4,0.5 L129,0.5 C131.209139,0.5 133,2.290861 133,4.5 L133,148.5 C133,150.709139 131.209139,152.5 129,152.5 L4,152.5 C1.790861,152.5 -3.63770827e-12,150.709139 -3.63797881e-12,148.5 L-3.63797881e-12,4.5 C-3.63824935e-12,2.290861 1.790861,0.5 4,0.5 Z" id="path-1"></path>
        <linearGradient x1="46.662466%" y1="-36.2483272%" x2="54.3249004%" y2="205.226188%" id="linearGradient-3">
            <stop stop-color="#82B1ED" offset="0%"></stop>
            <stop stop-color="#B073FD" offset="100%"></stop>
        </linearGradient>
        <polygon id="path-4" points="0 0 220 0 220 812 0 812"></polygon>
        <path d="M31,6.66666667 L31,0 L31,0 L31,40 L0,40 L0,0 L24.3571429,0 L31,6.66666667 Z M22.1428571,4.44444444 L4.42857143,4.44444444 L4.42857143,35.5555556 L26.5714286,35.5555556 L26.5714286,8.88888889 L22.1428571,8.88888889 L22.1428571,4.44444444 Z M22.1428571,26.6666667 L22.1428571,28.8888889 L8.85714286,28.8888889 L8.85714286,26.6666667 L22.1428571,26.6666667 Z M22.1428571,20 L22.1428571,22.2222222 L8.85714286,22.2222222 L8.85714286,20 L22.1428571,20 Z M22.1428571,13.3333333 L22.1428571,15.5555556 L8.85714286,15.5555556 L8.85714286,13.3333333 L22.1428571,13.3333333 Z" id="path-6"></path>
    </defs>
    <g id="Dashboard" stroke="none" stroke-width="1" fill="none" fill-rule="evenodd">
        <g id="Group-33">
            <rect id="Rectangle" fill="#F4F4F4" x="6" y="134" width="112" height="3" rx="1.5"></rect>
            <g id="Background-Copy-2">
                <mask id="mask-2" fill="white">
                    <use xlink:href="#path-1"></use>
                </mask>
                <g id="Container"></g>
                <g id="Group" mask="url(#mask-2)">
                    <g transform="translate(-16.000000, -31.473684)" id="Background/Pattern-7">
                        <mask id="mask-5" fill="white">
                            <use xlink:href="#path-4"></use>
                        </mask>
                        <use id="BG" fill="url(#linearGradient-3)" xlink:href="#path-4"></use>
                        <circle id="Circle-5" fill-opacity="0.16" fill="#000000" style="mix-blend-mode: overlay;" mask="url(#mask-5)" cx="217.653333" cy="351" r="109"></circle>
                        <circle id="Circle-4" fill-opacity="0.24" fill="#000000" style="mix-blend-mode: overlay;" mask="url(#mask-5)" cx="217.653333" cy="41" r="64"></circle>
                        <circle id="Circle-3" fill="#7396FD" style="mix-blend-mode: overlay;" mask="url(#mask-5)" cx="0" cy="196" r="46"></circle>
                        <circle id="Circle-2" fill="#7396FD" style="mix-blend-mode: overlay;" mask="url(#mask-5)" cx="237.893333" cy="118.5" r="55.5"></circle>
                        <circle id="Circle-1" fill-opacity="0.16" fill="#000000" style="mix-blend-mode: overlay;" mask="url(#mask-5)" cx="11.7333333" cy="63" r="125"></circle>
                    </g>
                </g>
            </g>
            <g id="icon/24px/Calendar" transform="translate(39.000000, 19.000000)">
                <rect id="Boundary" fill-opacity="0" fill="#FFFFFF" x="0" y="0" width="53" height="53"></rect>
                <g id="Calendar" transform="translate(11.000000, 7.000000)">
                    <mask id="mask-7" fill="white">
                        <use xlink:href="#path-6"></use>
                    </mask>
                    <use id="Combined-Shape" fill="#979797" fill-rule="nonzero" xlink:href="#path-6"></use>
                    <g id="Group" mask="url(#mask-7)">
                        <g transform="translate(-11.071429, -6.666667)">
                            <rect id="BG" fill="#FFFFFF" x="0" y="0" width="72" height="72"></rect>
                        </g>
                    </g>
                </g>
            </g>
            <text id="Follow-Up-Session" font-family="Rubik-Bold, Rubik" font-size="16" font-weight="bold" fill="#FFFFFF">
                <tspan x="10" y="105">Follow Up </tspan>
                <tspan x="10" y="124" font-family="Rubik-Regular, Rubik" font-weight="normal">Session</tspan>
            </text>
            <g id="redo" transform="translate(80.498100, 63.503162) scale(-1, 1) rotate(-62.000000) translate(-80.498100, -63.503162) translate(64.998100, 48.003162)">
                <circle id="Oval" fill="#FFFFFF" cx="15.7909288" cy="15.5852034" r="15"></circle>
                <path d="M23.2867087,6.91880203 C23.0883978,6.83735061 22.8596075,6.88196731 22.7079886,7.03423475 L20.7955664,8.94678665 C19.2188071,7.64486097 17.195751,6.87846541 15.1147192,6.87846541 C10.4276312,6.87846541 6.61471923,10.6913774 6.61471923,15.3784654 C6.61471923,20.0655534 10.4276312,23.8784654 15.1147192,23.8784654 C17.3835562,23.8784654 19.5177649,22.9937837 21.1234473,21.3871934 C21.4004858,21.1102846 21.4004858,20.6626909 21.1234473,20.3856523 C20.8465384,20.1087434 20.3989447,20.1087434 20.1219061,20.3856523 C18.7839239,21.7244127 17.0052222,22.4617555 15.1147192,22.4617555 C11.2089423,22.4617555 8.03142914,19.2842424 8.03142914,15.3784654 C8.03142914,11.4726885 11.2089423,8.29517532 15.1147192,8.29517532 C16.8218268,8.29517532 18.4792593,8.90930341 19.788967,9.95260788 L18.1039084,11.6384447 C17.9516409,11.7907121 17.9070242,12.0188539 17.9884756,12.2171647 C18.0705756,12.4154756 18.2639578,12.5451753 18.4792593,12.5451753 L23.0834692,12.5451753 C23.3767203,12.5451753 23.6147192,12.3071763 23.6147192,12.0139253 L23.6147192,7.40971541 C23.6147192,7.1944139 23.4851492,7.00103163 23.2867087,6.91880203 Z" id="Path" fill="#9796F4" fill-rule="nonzero"></path>
            </g>
            <rect id="Rectangle" fill="#F4F4F4" x="11" y="136" width="112" height="3" rx="1.5"></rect>
        </g>
    </g>
</svg>