<svg
   xmlns:osb="http://www.openswatchbook.org/uri/2009/osb"
   xmlns:dc="http://purl.org/dc/elements/1.1/"
   xmlns:cc="http://creativecommons.org/ns#"
   xmlns:rdf="http://www.w3.org/1999/02/22-rdf-syntax-ns#"
   xmlns:svg="http://www.w3.org/2000/svg"
   xmlns="http://www.w3.org/2000/svg"
   width="210mm"
   height="297mm"
   viewBox="0 0 210 297"
   version="1.1"
   id="svg8">
  <defs>
  </defs>
  
  
  <g>
    <path
       style="fill:#899eef;stroke-width:0.176753"
       d="m 100.24507,47.93939 c -0.388863,-0.127411 -2.098953,-0.911119 -3.800203,-1.741576 -3.79446,-1.852246 -4.69682,-2.619365 -5.78904,-4.921399 -0.78415,-1.652704 -1.5187,-4.40192 -1.79285,-6.710056 -0.68669,-5.78142 -0.69731,-11.620485 -0.0254,-13.963519 0.85493,-2.981276 3.34676,-5.89234 6.28165,-7.338506 1.42982,-0.704541 1.82476,-0.813283 3.90309,-1.074669 2.142573,-0.269465 2.479923,-0.269608 4.595593,-0.0019 2.02559,0.256261 2.46282,0.375997 3.87406,1.060906 1.29563,0.6288 1.88814,1.062918 3.19346,2.339785 2.558,2.502248 3.35289,4.36553 3.6096,8.461124 0.15602,2.489248 -0.11437,8.128371 -0.53039,11.061728 -0.54849,3.867386 -1.74662,6.888183 -3.37977,8.521341 -0.89054,0.890533 -1.48545,1.25091 -4.45252,2.697178 -3.64599,1.777204 -4.46679,2.009506 -5.68727,1.609612 z"
       id="head" />
    <path
       style="fill:#899eef;stroke-width:0.176753"
       d="m 96.591657,278.65806 c -0.35673,-0.18843 -0.81669,-0.57868 -1.02215,-0.86722 -0.32568,-0.45738 -0.35835,-0.67293 -0.25495,-1.68223 0.10275,-1.00281 0.0799,-1.15762 -0.17093,-1.15762 -0.21202,0 -0.28954,0.16254 -0.28954,0.60712 0,0.76598 -0.27104,1.48911 -0.7496,1.99999 -0.41725,0.44541 -1.3718,0.52949 -2.43313,0.21432 -0.3396,-0.10085 -1.63426,-0.20713 -2.87701,-0.23621 l -2.25953,-0.0528 -0.61271,-0.59386 c -0.33795,-0.32756 -0.61271,-0.7704 -0.61271,-0.98754 0,-0.40961 0.75895,-1.50113 2.04437,-2.94017 0.41281,-0.46215 1.46824,-1.90688 2.34541,-3.21051 1.87717,-2.78985 2.58619,-4.60994 2.40614,-6.17672 -0.22785,-1.9827 -1.04534,-5.14541 -2.81598,-10.89453 -3.32945,-10.8104 -5.9761,-20.43878 -6.81335,-24.78666 -0.0886,-0.4601 -0.21159,-2.80651 -0.27329,-5.21422 -0.10087,-3.93577 -0.0741,-4.62745 0.26557,-6.85221 0.20777,-1.361 0.41556,-2.59859 0.46178,-2.75019 0.0462,-0.15162 0.20429,-1.22539 0.35129,-2.38617 0.147,-1.16079 0.38076,-2.74683 0.51946,-3.52455 0.43212,-2.42305 0.52183,-6.39674 0.2095,-9.27955 -0.37235,-3.43664 -0.77592,-5.44398 -2.41649,-12.01924 -1.64011,-6.57346 -2.0907,-8.82664 -2.90936,-14.54799 -1.8832,-13.16113 -2.51406,-24.16555 -1.79547,-31.31951 0.77162,-7.68195 0.94827,-8.68977 2.32357,-13.2565 0.54956,-1.82484 0.62962,-3.78321 0.20324,-4.97153 -0.44559,-1.24191 -0.70313,-3.99981 -0.58125,-6.22477 0.29721,-5.4263 0.33487,-8.1408 0.12461,-8.98132 -0.11777,-0.47082 -0.615,-1.92982 -1.10494,-3.24221 -1.33852,-3.585432 -1.57092,-4.578332 -1.82034,-7.77715 -0.0568,-0.729108 -0.1497,-1.663691 -0.20633,-2.076852 -0.13606,-0.992729 0.13404,-0.978931 1.04261,0.05326 1.64982,1.874302 5.46539,2.8968 10.8361,2.903862 2.38522,0.0031 2.77286,-0.03996 3.72852,-0.414476 1.76973,-0.693548 5.89387,-3.825435 5.89387,-4.475819 0,-0.170476 -0.48817,0.156238 -1.28147,0.857638 -1.99128,1.760609 -3.71301,2.949481 -4.82604,3.33242 -0.85243,0.293275 -1.4873,0.350232 -3.90392,0.350232 -4.96286,0 -8.55834,-0.988658 -10.14777,-2.790362 -0.88071,-0.998324 -1.70699,-2.574195 -1.94742,-3.714114 -0.87432,-4.145148 -0.87282,-6.472109 0.006,-8.854829 0.56386,-1.529292 0.62182,-1.785775 0.40352,-1.785775 -0.23883,0 -0.9491,2.084472 -1.21943,3.57877 -0.40894,2.260416 0.007,6.029368 0.93914,8.518086 0.18805,0.501853 0.22991,1.044735 0.14993,1.944287 -0.0611,0.686415 -0.0305,2.134804 0.0679,3.218643 l 0.17892,1.970617 -1.05051,2.024282 c -0.57778,1.11336 -1.4061,3.07965 -1.84072,4.36955 -0.80186,2.37985 -0.97409,3.14112 -1.78068,7.87053 -0.49494,2.90206 -1.58822,6.4295 -2.76649,8.92605 -0.39,0.82632 -1.14662,2.53375 -1.68139,3.79429 -0.53477,1.26054 -1.2326,2.81155 -1.55072,3.44669 -0.31812,0.63515 -0.638596,1.35365 -0.712161,1.59669 -0.07357,0.24303 -0.750334,1.75428 -1.503921,3.35832 -0.753588,1.60403 -1.668528,3.63227 -2.033194,4.5072 -0.364672,0.87493 -1.064294,2.38617 -1.554713,3.35831 -0.857468,1.69972 -0.892988,1.82857 -0.925809,3.35832 -0.03026,1.41198 -0.137597,1.88878 -0.954635,4.24208 -1.774466,5.11095 -1.823915,5.37471 -1.695263,9.04207 0.09111,2.59705 0.06367,3.32626 -0.14379,3.82281 -0.303994,0.72757 -0.527655,0.89488 -0.997096,0.74588 -0.396231,-0.12576 -0.616425,-0.83686 -0.793864,-2.56368 -0.163137,-1.58766 -0.547883,-3.35437 -0.781345,-3.58783 -0.126214,-0.12621 -0.255186,-0.13419 -0.366696,-0.0227 -0.181247,0.18124 -0.607219,3.09561 -0.79534,5.44143 -0.140858,1.75646 -0.513145,2.73025 -1.100109,2.87758 -0.889635,0.22328 -0.95171,-0.0509 -1.023558,-4.52115 -0.03634,-2.2607 -0.107909,-4.1522 -0.159054,-4.20335 -0.315371,-0.31537 -0.683958,0.46719 -1.662215,3.52909 -1.107825,3.46744 -1.655828,4.56866 -2.572372,5.1692 -0.329179,0.21569 -0.528704,0.23545 -0.910698,0.0902 -0.480691,-0.18276 -0.487679,-0.20659 -0.403225,-1.37454 0.06333,-0.87587 0.319078,-1.76979 0.972145,-3.39797 1.245288,-3.10464 1.492491,-3.93556 1.429802,-4.80592 -0.04396,-0.61055 -0.126614,-0.77208 -0.416218,-0.81353 -0.275241,-0.0394 -0.570089,0.25394 -1.237272,1.23093 -2.286729,3.34853 -4.27978,5.6258 -4.923668,5.6258 -0.436961,0 -0.805294,-0.69844 -0.689334,-1.30715 0.142821,-0.74975 0.820505,-2.07385 1.81873,-3.55357 0.459074,-0.6805 1.405185,-2.24721 2.102483,-3.48158 1.610154,-2.85036 1.734978,-3.85368 0.479415,-3.85368 -0.440274,0 -0.812729,0.20303 -1.540163,0.83957 -1.946728,1.7035 -3.835543,2.61106 -4.979161,2.39244 -1.171089,-0.22387 -1.036271,-0.97257 0.371499,-2.06308 1.154895,-0.89463 3.502002,-3.30402 5.717291,-5.86901 0.841956,-0.97486 1.963409,-2.10621 2.492126,-2.51412 0.844148,-0.65125 1.12506,-0.7624 2.305,-0.912 0.739031,-0.0937 1.635253,-0.312 1.991608,-0.48511 0.578099,-0.28083 0.693757,-0.45758 1.0734,-1.64039 0.728636,-2.27015 1.099608,-4.00465 1.833488,-8.57254 0.390465,-2.43036 0.822657,-4.81653 0.960421,-5.3026 0.13777,-0.48607 0.417147,-1.878 0.620847,-3.09318 0.2037,-1.21518 0.492843,-2.93439 0.642551,-3.82047 0.149703,-0.88607 0.509204,-2.278 0.798888,-3.09318 0.289684,-0.81518 0.727327,-2.07868 0.972546,-2.80779 0.572347,-1.70177 1.67609,-4.05732 2.259633,-4.82238 0.25049,-0.32841 0.849906,-1.3231 1.332034,-2.21043 l 0.876601,-1.61332 -0.03207,-3.940156 c -0.02879,-3.541554 0.0187,-4.270955 0.469929,-7.210094 0.276096,-1.798466 0.825456,-4.502793 1.220791,-6.009616 0.89381,-3.406731 0.992821,-5.075392 0.55441,-9.343597 -0.275221,-2.679423 -0.286765,-3.328227 -0.09101,-5.112869 0.485816,-4.428921 1.304186,-6.358067 3.751256,-8.842764 1.41821,-1.440022 1.85735,-1.764972 3.49529,-2.586394 2.31681,-1.161885 3.69262,-1.594747 5.95051,-1.872185 2.78502,-0.342205 7.55135,-0.308786 10.46851,0.0734 1.38958,0.182054 2.57737,0.280152 2.63952,0.217995 0.28109,-0.281062 -0.39971,-0.459817 -2.83199,-0.743522 -1.43828,-0.167764 -2.52294,-0.36195 -2.41036,-0.431527 0.15495,-0.09577 0.15482,-0.143125 -5.3e-4,-0.194914 -0.20494,-0.06831 0.46327,-0.525555 3.02691,-2.071258 3.08323,-1.858976 3.74242,-2.42377 4.63642,-3.972436 0.49477,-0.857105 0.8093,-2.680534 0.8093,-4.691885 0,-0.777658 0.0597,-1.448537 0.13256,-1.490839 0.0729,-0.0423 1.56427,0.624836 3.31413,1.482532 3.58941,1.759353 4.622003,2.066761 5.906903,1.758519 0.46565,-0.111708 2.30353,-0.916101 4.08418,-1.787538 1.78064,-0.871439 3.29477,-1.522482 3.36473,-1.446761 0.07,0.07572 0.16357,1.211452 0.20802,2.523846 0.0869,2.564531 0.22876,3.102717 1.18413,4.491299 0.57588,0.837012 2.90023,2.554347 5.04842,3.730004 1.64992,0.902962 2.20942,1.301638 2.20942,1.574332 0,0.160471 -0.77603,0.319828 -2.6513,0.544439 -1.95295,0.233916 -2.6513,0.380492 -2.6513,0.556477 0,0.300026 -0.21639,0.308696 3.58766,-0.143754 2.98023,-0.354463 3.46485,-0.36734 6.57566,-0.174698 4.83665,0.299518 5.74756,0.524894 9.25151,2.28901 1.48573,0.748012 1.81998,1.01533 3.33685,2.668663 2.38535,2.599952 2.89142,3.820032 3.48684,8.406378 0.25098,1.933262 0.24946,2.316863 -0.0179,4.507212 -0.16073,1.316758 -0.2991,3.467884 -0.30749,4.780279 -0.0144,2.24661 0.0232,2.521475 0.64334,4.699552 1.23596,4.341453 1.8959,9.320713 1.91424,14.443059 l 0.0134,3.74695 1.21839,1.94429 c 1.65705,2.6443 2.43534,4.28151 3.58686,7.54534 0.98076,2.77984 1.20691,3.73865 1.88904,8.00896 0.20187,1.26379 0.51581,2.89434 0.69763,3.62345 0.18182,0.7291 0.62104,3.15504 0.97604,5.39098 0.67905,4.27689 1.0438,5.9558 1.81464,8.35265 l 0.46932,1.45927 0.94199,0.35245 c 0.5181,0.19384 1.25199,0.35245 1.63087,0.35245 0.37889,0 0.89262,0.0775 1.14163,0.17213 0.69085,0.26266 2.22728,1.51537 3.01696,2.45984 2.35923,2.8217 3.65022,4.2 5.46807,5.83788 1.9691,1.77415 2.2981,2.24672 1.82302,2.61844 -1.01253,0.79221 -3.27053,-0.0827 -5.63659,-2.18414 -1.25642,-1.11589 -2.27313,-1.03357 -2.27313,0.18404 0,0.56751 2.02857,4.33032 3.5336,6.55448 1.60916,2.37805 2.068,3.70711 1.49748,4.33752 -0.17244,0.19055 -0.4119,0.34644 -0.53214,0.34644 -0.47488,0 -2.0174,-1.65715 -3.52858,-3.79079 -2.21421,-3.12622 -2.19462,-3.10259 -2.5706,-3.10259 -0.85674,0 -0.59891,1.61184 0.83307,5.20812 1.11568,2.80188 1.50351,4.49393 1.1325,4.94096 -0.40514,0.48817 -1.33405,0.35111 -1.86047,-0.27449 -0.7197,-0.85532 -1.02574,-1.58066 -2.13412,-5.05806 -0.95574,-2.99852 -1.25717,-3.57938 -1.5835,-3.05137 -0.0593,0.0959 -0.10806,1.90542 -0.1084,4.02114 -6.7e-4,4.16629 -0.11127,4.72541 -0.91162,4.60879 -0.6914,-0.10075 -1.02568,-1.0243 -1.28241,-3.54313 -0.13144,-1.28961 -0.29477,-2.82198 -0.36294,-3.40527 -0.17568,-1.50305 -0.5716,-1.9365 -0.92835,-1.01633 -0.22542,0.58143 -0.73713,3.59417 -0.74081,4.36161 -0.004,0.8233 -0.37675,1.42706 -0.88116,1.42706 -0.78521,0 -0.89223,-0.54591 -0.86618,-4.41883 0.0244,-3.6271 -0.15028,-5.00323 -0.83997,-6.61759 -0.14787,-0.34611 -0.59278,-1.58377 -0.98869,-2.75034 -0.59421,-1.75083 -0.73409,-2.42558 -0.80146,-3.86581 -0.0789,-1.68576 -0.11427,-1.81103 -1.0473,-3.7043 -0.53113,-1.07774 -1.28009,-2.71854 -1.66435,-3.64621 -0.38426,-0.92767 -1.1369,-2.58486 -1.67254,-3.68265 -0.53563,-1.09779 -1.21854,-2.60903 -1.51755,-3.35832 -0.29901,-0.74928 -0.76293,-1.7998 -1.03092,-2.33447 -0.26799,-0.53468 -0.82265,-1.76754 -1.23258,-2.73968 -0.40992,-0.97214 -0.98435,-2.2432 -1.27652,-2.82456 -1.65358,-3.2905 -2.81056,-7.0474 -3.59108,-11.66087 -0.77754,-4.59586 -1.81093,-7.89877 -3.43129,-10.96706 l -1.02678,-1.944288 0.15333,-1.060521 c 0.0843,-0.583286 0.1423,-2.098872 0.12883,-3.367968 -0.0135,-1.269097 0.0547,-2.462183 0.15152,-2.651301 0.0968,-0.18912 0.36642,-1.139243 0.59914,-2.111387 0.766,-3.199749 0.51809,-7.417858 -0.55527,-9.447809 -0.30557,-0.577881 -0.33192,-0.59243 -0.33554,-0.185252 -0.002,0.243036 0.15507,0.792349 0.34941,1.220695 0.92033,2.028524 0.97474,5.03021 0.15542,8.575137 -0.45381,1.963494 -1.01268,3.082128 -2.13016,4.263693 -1.11506,1.179009 -2.33562,1.726546 -5.10706,2.290994 -1.8037,0.367349 -2.65629,0.440353 -5.10191,0.436859 -2.6701,-0.0038 -3.02764,-0.04176 -3.94368,-0.41851 -1.18558,-0.48761 -3.14931,-1.882627 -4.67763,-3.32295 -0.59917,-0.564678 -1.13606,-1.026686 -1.19309,-1.026686 -0.59434,0 1.33193,1.862716 3.45519,3.341187 0.81324,0.566276 1.97667,1.21048 2.5854,1.431567 1.05052,0.381543 1.27962,0.396979 4.50721,0.303694 3.0243,-0.08741 3.63231,-0.157951 5.49679,-0.637718 2.31824,-0.596527 3.325,-1.100086 4.29465,-2.148091 1.00906,-1.090597 1.13444,-0.975007 1.01439,0.93511 -0.17178,2.732923 -0.56609,5.024057 -1.14258,6.638945 -0.30157,0.84474 -0.8796,2.4506 -1.28452,3.56856 l -0.73622,2.03267 0.0829,3.26994 c 0.0456,1.79846 0.0783,4.86072 0.0727,6.805 -0.009,3.14097 -0.0528,3.66079 -0.39223,4.6628 -0.4003,1.18163 -0.49269,2.80269 -0.2228,3.90974 0.083,0.34025 0.47924,1.74132 0.88063,3.11348 0.4014,1.37217 0.84716,3.28111 0.99058,4.24208 0.23274,1.55955 0.3696,2.89346 0.97723,9.52439 0.3782,4.12717 0.13002,10.07618 -0.8111,19.44287 -1.10459,10.99364 -2.09906,16.55298 -4.93243,27.57352 -1.20812,4.69908 -1.68573,8.23094 -1.69186,12.51109 -0.004,2.78237 0.0728,3.66626 0.62494,7.19693 0.14443,0.92353 0.34001,2.23592 0.43462,2.91642 0.0946,0.68051 0.33282,2.19174 0.52935,3.35832 0.52902,3.14015 0.60463,4.91581 0.37632,8.83767 -0.18706,3.21347 -0.28372,3.8647 -1.06255,7.15851 -1.07367,4.54074 -3.7138,13.83396 -6.60316,23.24307 -0.44779,1.45822 -1.14376,3.91868 -1.5466,5.46769 -1.18373,4.55178 -0.95391,5.82315 1.78975,9.90077 0.85381,1.26891 1.97969,2.78431 2.50196,3.36753 1.98487,2.21652 2.18417,2.9031 1.08587,3.74081 -0.6131,0.46764 -0.73852,0.49084 -2.87224,0.53135 -1.22714,0.0233 -2.50901,0.12548 -2.84863,0.22702 -1.05677,0.31602 -1.9147,0.23146 -2.38083,-0.23465 -0.42564,-0.42564 -0.79911,-1.45271 -0.80091,-2.20252 -5.3e-4,-0.25223 -0.0868,-0.38301 -0.22192,-0.33671 -0.24412,0.0837 -0.27385,0.80188 -0.0687,1.65937 0.11365,0.47502 0.05,0.65144 -0.43345,1.20212 -0.81104,0.92373 -1.46165,1.2134 -2.5009,1.11356 -0.91228,-0.0877 -1.55999,-0.46296 -2.14017,-1.24005 -0.30576,-0.40954 -0.36223,-0.86376 -0.46013,-3.7009 -0.13326,-3.86189 0.0907,-14.81462 0.35894,-17.5511 0.1048,-1.06936 0.26364,-2.66014 0.35296,-3.53507 0.0893,-0.87493 0.20175,-3.42018 0.24982,-5.6561 0.0481,-2.23593 0.1592,-6.41173 0.24696,-9.27956 0.0878,-2.86782 0.16668,-9.31049 0.1754,-14.31703 0.009,-5.00653 0.0933,-9.69934 0.18796,-10.42844 0.68866,-5.30374 0.69226,-5.1941 -0.26644,-8.10353 -0.80243,-2.43519 -0.99747,-3.95451 -0.7536,-5.8706 0.10443,-0.82049 0.22642,-3.16212 0.27111,-5.20362 0.0778,-3.55377 -0.10724,-6.46325 -0.65752,-10.34007 -0.34651,-2.44129 -0.39274,-5.44649 -0.26439,-17.18927 0.12085,-11.05651 0.15878,-12.15213 0.42085,-12.15553 0.6362,-0.008 2.75906,-0.89457 3.25302,-1.35821 0.94877,-0.89053 1.58678,-2.88014 0.92358,-2.88014 -0.16635,0 -0.26513,0.16791 -0.26513,0.45067 0,1.10834 -1.17082,2.33341 -2.78285,2.91179 -2.90093,1.04081 -6.418273,-0.37916 -6.867233,-2.77238 -0.14476,-0.7716 -0.53008,-0.6628 -0.46313,0.13076 0.0637,0.75453 0.79827,2.01753 1.40628,2.41784 0.2573,0.16941 1.10865,0.51757 1.89189,0.7737 l 1.424063,0.46568 0.0145,4.21828 c 0.008,2.32005 0.0289,8.33398 0.0464,13.36428 0.0282,8.11556 -0.008,9.4996 -0.32144,12.28436 -0.19428,1.7261 -0.43785,3.90924 -0.541273,4.8514 -0.21848,1.99049 -0.19778,7.388 0.0313,8.17626 0.0862,0.29654 0.2066,1.33997 0.26756,2.31873 0.12337,1.98089 -0.11419,3.4048 -0.996313,5.97157 -0.70623,2.05499 -0.7599,2.62363 -0.44446,4.70997 0.44019,2.91159 0.59814,7.62362 0.60431,18.02885 0.003,5.29818 0.0494,9.95121 0.10283,10.34007 0.0534,0.38886 0.17525,3.80904 0.27074,7.6004 0.10968,4.35471 0.268363,7.47923 0.430883,8.48416 0.1415,0.87493 0.25987,2.54525 0.26305,3.71182 0.003,1.16658 0.0948,3.59251 0.20351,5.39098 0.12607,2.08506 0.1508,5.08557 0.0682,8.28057 l -0.12948,5.01062 -0.53587,0.61033 c -1.017463,1.15883 -2.260213,1.4288 -3.518173,0.76427 z"
       id="body" />
    
    <path
       style="fill:#ffffff;stroke-width:0.176753"
       d="m 100.41339,123.18238 c -0.495703,-0.53486 -0.566263,-1.31853 -0.1557,-1.7291 0.15277,-0.15276 0.33571,-0.27776 0.40654,-0.27776 0.26486,0 0.55298,0.43828 0.55298,0.84118 0,0.23297 0.078,0.36876 0.17676,0.30772 0.0972,-0.0601 0.17675,-0.30588 0.17675,-0.54623 0,-0.51173 0.4218,-0.73596 0.79764,-0.42404 0.37843,0.31406 0.3234,1.28754 -0.10345,1.8302 -0.49255,0.62618 -1.27014,0.62535 -1.85152,-0.002 z"
       id="bellybutton" />
    <path
       style="fill:#ffffff;stroke-width:0.176753"
       d="m 154.74784,148.7541 c -0.97136,-0.29361 -2.64928,-1.31823 -3.66717,-2.23937 -1.10742,-1.00216 -1.9194,-2.11717 -1.69411,-2.32638 0.073,-0.0678 0.16652,-0.029 0.20782,0.0862 0.19234,0.53659 1.19179,1.69987 2.02917,2.36178 1.72668,1.36485 4.29885,2.42277 4.29885,1.76808 0,-0.15348 -0.42998,-0.41017 -1.07215,-0.64005 -1.81408,-0.6494 -3.42507,-1.84017 -4.40751,-3.25784 -0.38207,-0.55133 -0.57393,-0.6884 -0.8437,-0.60278 -0.23102,0.0733 -0.30824,0.0446 -0.22822,-0.0849 0.26389,-0.42699 0.79294,-0.15817 1.48022,0.75212 1.06379,1.40898 2.8911,2.64943 4.56811,3.101 0.77993,0.21001 1.07943,0.61387 0.74978,1.01107 -0.22053,0.26572 -0.69799,0.28958 -1.42109,0.071 z"
       id="left-hand-line" />
    <path
       style="fill:#ffffff;stroke-width:0.176753"
       d="m 46.478351,148.63665 c -0.16945,-0.44158 0.154826,-0.804 0.925996,-1.03494 1.80219,-0.53969 3.842337,-2.01193 4.691095,-3.38524 0.462073,-0.74766 0.823972,-0.78739 0.392008,-0.043 -0.861851,1.48511 -3.18569,3.216 -5.037549,3.75216 -0.923652,0.26742 -1.101331,0.6467 -0.302965,0.6467 1.81668,0 6.348005,-3.59315 5.924184,-4.69763 -0.05899,-0.15376 -0.02839,-0.22337 0.07119,-0.16183 0.592389,0.36611 -0.37013,1.92764 -1.956354,3.17385 -1.20725,0.94847 -3.400213,2.03912 -4.100036,2.03912 -0.296712,0 -0.54127,-0.11639 -0.607566,-0.28915 z"
       id="right-hand-line" />
    <path
       style="fill:#ffffff;stroke-width:0.176753"
       d="m 112.23701,207.34249 c 0.56052,-0.146 1.29221,-0.45101 1.62598,-0.67782 0.67825,-0.46088 1.58235,-1.62885 1.95941,-2.53128 0.55998,-1.34022 0.13305,-3.94562 -0.76189,-4.64959 -0.69454,-0.54633 -0.97744,-0.16076 -0.35713,0.48673 0.57339,0.59848 0.92774,2.13318 0.75638,3.27589 -0.18758,1.25087 -1.21326,2.57503 -2.48844,3.21262 -0.9318,0.46589 -1.23374,0.52792 -2.48752,0.51105 -1.1576,-0.0156 -1.59887,-0.10553 -2.33746,-0.4765 -0.51266,-0.25749 -0.95562,-0.38426 -1.0138,-0.29012 -0.16431,0.26586 0.088,0.53553 0.7787,0.83226 1.39201,0.59805 2.81896,0.69923 4.32577,0.30676 z"
       id="left-knee" />
    <path
       style="fill:#ffffff;stroke-width:0.176753"
       d="m 109.43252,207.79563 c -0.90363,-0.14176 -2.36546,-0.78221 -2.60068,-1.13939 -0.21068,-0.31994 -0.15443,-0.64283 0.13107,-0.75239 0.14649,-0.0562 0.77979,0.11602 1.40734,0.38273 0.99617,0.42338 1.30686,0.4743 2.44767,0.40107 1.81116,-0.11623 2.79216,-0.61678 3.60344,-1.83866 0.346,-0.52112 0.68905,-1.27531 0.76232,-1.67595 0.1811,-0.99041 -0.19759,-2.53794 -0.76715,-3.1349 -0.34765,-0.3644 -0.41088,-0.54326 -0.27639,-0.7818 0.48465,-0.85963 1.59573,0.13173 2.03461,1.81538 0.43833,1.68156 0.24672,2.85402 -0.69609,4.25926 -1.33746,1.9935 -3.48059,2.86713 -6.04614,2.46465 z"
       id="left-knee2" />
    <path
       style="fill:#ffffff;stroke-width:0.176753"
       d="m 94.794377,206.99891 c 0.51891,-0.23757 0.94348,-0.50261 0.94348,-0.58901 0,-0.35425 -0.25739,-0.35879 -0.92856,-0.0164 -1.65563,0.84463 -3.92919,0.79738 -5.52692,-0.11493 -0.82347,-0.47017 -1.82065,-1.89921 -2.0559,-2.94626 -0.22015,-0.97981 0.13283,-2.68287 0.69437,-3.35022 0.48597,-0.57754 0.43863,-0.77586 -0.14127,-0.59182 -0.81383,0.2583 -1.46013,2.83125 -1.07243,4.26944 0.44932,1.66679 2.00335,3.23612 3.67018,3.70636 1.21813,0.34364 3.22967,0.17644 4.41705,-0.36717 z"
       id="right-knee" />
    <path
       style="fill:#ffffff;stroke-width:0.176753"
       d="m 90.435247,207.68254 c -1.21623,-0.33164 -2.07912,-0.89469 -2.87305,-1.8747 -1.25171,-1.54509 -1.51501,-2.68537 -1.07212,-4.64315 0.31596,-1.39669 1.00137,-2.28395 1.68861,-2.18592 0.55769,0.0795 0.58025,0.52521 0.0553,1.09171 -0.56657,0.61134 -0.71569,1.15282 -0.71281,2.58836 0.002,1.00473 0.074,1.25257 0.57372,1.97508 0.74232,1.07328 1.30377,1.5009 2.3968,1.82549 1.36844,0.40638 2.64721,0.34043 3.848,-0.19844 1.10706,-0.49682 1.57496,-0.46709 1.57496,0.10007 0,1.04495 -3.44578,1.87601 -5.47935,1.3215 z"
       id="right-knee2" />
  </g>
</svg>
