<?xml version="1.0" encoding="UTF-8"?>
<svg width="31px" height="31px" viewBox="0 0 31 31" version="1.1" xmlns="http://www.w3.org/2000/svg" xmlns:xlink="http://www.w3.org/1999/xlink">
    <title>video-marketing</title>
    <defs>
        <linearGradient x1="4.53340833%" y1="-36.2483272%" x2="108.917296%" y2="205.226188%" id="linearGradient-1">
            <stop stop-color="#82B1ED" offset="0%"></stop>
            <stop stop-color="#B073FD" offset="100%"></stop>
        </linearGradient>
    </defs>
    <g id="Dashboard" stroke="none" stroke-width="1" fill="none" fill-rule="evenodd">
        <g id="video-marketing" fill="url(#linearGradient-1)" fill-rule="nonzero">
            <path d="M27.3671875,0 L3.6328125,0 C1.62956235,0 0,1.63476559 0,3.64441219 L0,20.0442671 C0,22.0539137 1.62956235,23.6886792 3.6328125,23.6886792 L27.3671875,23.6886792 C29.3704377,23.6886792 31,22.0539137 31,20.0442671 L31,3.64441219 C31,1.63476559 29.3704377,0 27.3671875,0 Z M28.6603774,19.8490566 C28.6603774,20.5148585 28.1136943,21.0566038 27.4418239,21.0566038 L3.5581761,21.0566038 C2.88630569,21.0566038 2.33962264,20.5148585 2.33962264,19.8490566 L2.33962264,3.54716981 C2.33962264,2.88136791 2.88630569,2.33962264 3.5581761,2.33962264 L27.4418239,2.33962264 C28.1136943,2.33962264 28.6603774,2.88136791 28.6603774,3.54716981 L28.6603774,19.8490566 Z M10.2350235,27.2090802 L31,27.2090802 L31,29.6949292 L10.3055038,29.6949292 C9.89586638,30.4719998 9.09503938,31 8.17382812,31 C7.25261687,31 6.45178987,30.4719998 6.04215242,29.6949292 L0,29.6949292 L0,27.2090802 L6.11263274,27.2090802 C6.539299,26.5007103 7.30275725,26.0283019 8.17382812,26.0283019 C9.044899,26.0283019 9.80835725,26.5007103 10.2350235,27.2090802 Z M10.5283019,18.1320755 L21.6415094,11.8443396 L10.5283019,5.55660377 L10.5283019,18.1320755 Z M13.1603774,9.6509434 L16.9622642,11.8443396 L13.1603774,14.0377358 L13.1603774,9.6509434 Z" id="Shape"></path>
        </g>
    </g>
</svg>