<?xml version="1.0" encoding="UTF-8"?>
<svg width="31px" height="33px" viewBox="0 0 31 33" version="1.1" xmlns="http://www.w3.org/2000/svg" xmlns:xlink="http://www.w3.org/1999/xlink">
    <title>Combined Shape</title>
    <defs>
        <linearGradient x1="9.87750726%" y1="-36.2483272%" x2="101.992214%" y2="205.226188%" id="linearGradient-1">
            <stop stop-color="#82B1ED" offset="0%"></stop>
            <stop stop-color="#B073FD" offset="100%"></stop>
        </linearGradient>
        <path d="M4,16 L4,29 L27,29 L27,16 L4,16 Z M14,0 L14,8 L10,8 L10,0 L14,0 Z M21,0 L21,8 L17,8 L17,0 L21,0 Z M4,12 L27,12 L27,6 L25,6 L25,2 L31,2 L31,33 L0,33 L0,2 L6,2 L6,6 L4,6 L4,12 Z" id="path-2"></path>
    </defs>
    <g id="Dashboard" stroke="none" stroke-width="1" fill="none" fill-rule="evenodd">
        <mask id="mask-3" fill="white">
            <use xlink:href="#path-2"></use>
        </mask>
        <use id="Combined-Shape" fill="url(#linearGradient-1)" fill-rule="nonzero" xlink:href="#path-2"></use>
    </g>
</svg>