<?xml version="1.0" encoding="UTF-8"?>
<svg width="32px" height="32px" viewBox="0 0 32 32" version="1.1" xmlns="http://www.w3.org/2000/svg" xmlns:xlink="http://www.w3.org/1999/xlink">
    <title>App-icon/Light</title>
    <defs>
        <linearGradient x1="17.7001621%" y1="-36.2483272%" x2="91.8553281%" y2="205.226188%" id="linearGradient-1">
            <stop stop-color="#82B1ED" offset="0%"></stop>
            <stop stop-color="#B073FD" offset="100%"></stop>
        </linearGradient>
    </defs>
    <g id="UI-Kit" stroke="none" stroke-width="1" fill="none" fill-rule="evenodd">
        <g id="UI-Component/Side-bar/Group-Copy-4" transform="translate(-16.000000, -24.000000)">
            <g id="App-icon/Light" transform="translate(16.000000, 24.000000)">
                <path d="M10.2555408,-4.14336123e-16 L21.7444592,4.14336123e-16 C25.3105342,-2.4074122e-16 26.6036791,0.371302445 27.9073828,1.06853082 C29.2110865,1.76575919 30.2342408,2.78891348 30.9314692,4.09261719 C31.6286976,5.39632089 32,6.68946584 32,10.2555408 L32,21.7444592 C32,25.3105342 31.6286976,26.6036791 30.9314692,27.9073828 C30.2342408,29.2110865 29.2110865,30.2342408 27.9073828,30.9314692 C26.6036791,31.6286976 25.3105342,32 21.7444592,32 L10.2555408,32 C6.68946584,32 5.39632089,31.6286976 4.09261719,30.9314692 C2.78891348,30.2342408 1.76575919,29.2110865 1.06853082,27.9073828 C0.371302445,26.6036791 1.60494146e-16,25.3105342 -2.76224082e-16,21.7444592 L2.76224082e-16,10.2555408 C-1.60494146e-16,6.68946584 0.371302445,5.39632089 1.06853082,4.09261719 C1.76575919,2.78891348 2.78891348,1.76575919 4.09261719,1.06853082 C5.39632089,0.371302445 6.68946584,2.4074122e-16 10.2555408,-4.14336123e-16 Z" id="Container" fill="#FFFFFF"></path>
                <path d="M17.4667857,8.5625 C18.4420287,8.5625 19.3182104,8.67297509 20.0953571,8.89392857 C20.8725039,9.11488206 21.5353544,9.4501168 22.0839286,9.89964286 C22.6325027,10.3491689 23.0553557,10.9091633 23.3525,11.5796429 C23.6496443,12.2501224 23.7982143,13.0272575 23.7982143,13.9110714 C23.7982143,14.8101235 23.6496443,15.5948776 23.3525,16.2653571 C23.0553557,16.9358367 22.6325027,17.4920216 22.0839286,17.9339286 C21.5353544,18.3758355 20.8725039,18.7110703 20.0953571,18.9396429 C19.3182104,19.1682154 18.4420287,19.2825 17.4667857,19.2825 L14.5410714,19.2825 L14.5410714,23.9453571 C14.5410714,24.112977 14.4801197,24.2577375 14.3582143,24.3796429 C14.2363089,24.5015482 14.0915485,24.5625 13.9239286,24.5625 L10.9296429,24.5625 C10.762023,24.5625 10.6172625,24.5015482 10.4953571,24.3796429 C10.3734518,24.2577375 10.3125,24.112977 10.3125,23.9453571 L10.3125,9.17964286 C10.3125,9.01202297 10.3734518,8.86726251 10.4953571,8.74535714 C10.6172625,8.62345177 10.762023,8.5625 10.9296429,8.5625 L17.4667857,8.5625 Z M14.5410714,15.7167857 L17.3525,15.7167857 C17.9925032,15.7167857 18.5220217,15.5758347 18.9410714,15.2939286 C19.3601211,15.0120224 19.5696429,14.5510746 19.5696429,13.9110714 C19.5696429,13.2710682 19.3601211,12.8101205 18.9410714,12.5282143 C18.5220217,12.2463081 17.9925032,12.1053571 17.3525,12.1053571 L14.5410714,12.1053571 L14.5410714,15.7167857 Z" id="P" fill="url(#linearGradient-1)"></path>
            </g>
        </g>
    </g>
</svg>